<?xml version="1.0" encoding="utf-8"?>
<!-- Generator: Adobe Illustrator 13.0.0, SVG Export Plug-In . SVG Version: 6.00 Build 14948)  -->
<!DOCTYPE svg PUBLIC "-//W3C//DTD SVG 1.1//EN" "http://www.w3.org/Graphics/SVG/1.1/DTD/svg11.dtd" [
	<!ENTITY st0 "fill:url(#path14523_2_);">
	<!ENTITY st1 "opacity:0.25;">
	<!ENTITY st2 "opacity:0.73;">
	<!ENTITY st3 "fill:#1F205A;">
	<!ENTITY st4 "fill:none;stroke:#000000;stroke-width:0.5;">
	<!ENTITY st5 "fill:url(#path59_2_);">
	<!ENTITY st6 "fill:#939598;">
	<!ENTITY st7 "fill:#C8CBCF;">
	<!ENTITY st8 "opacity:0.1;">
	<!ENTITY st9 "fill:#FFFFFF;">
	<!ENTITY st10 "opacity:0.8;fill-rule:evenodd;clip-rule:evenodd;fill:url(#SVGID_3_);">
	<!ENTITY st11 "fill:#00A651;">
	<!ENTITY st12 "opacity:0.4;clip-path:url(#SVGID_2_);enable-background:new    ;">
]>
<svg version="1.1" id="Layer_1" xmlns="http://www.w3.org/2000/svg" xmlns:xlink="http://www.w3.org/1999/xlink" x="0px" y="0px"
	 width="100px" height="115.001px" viewBox="0 0 100 115.001" style="enable-background:new 0 0 100 115.001;" xml:space="preserve"
	>
<path id="path7865_1_"  style="&st2;" d="M0,0.001v115h65.787h0.033c0,0,12.402-10.172,18.131-15.818
	C89.682,93.534,100,81.31,100,81.31v-0.032V0.001H0z"/>
<path id="path34_1_"  style="&st9;" d="M2,1.001v112h63.146L98,80.147V1.001H2z"/>
<radialGradient id="path59_2_" cx="88" cy="5.3364" r="139.5541" gradientTransform="matrix(1 0 0 -0.9997 0 110.6051)" gradientUnits="userSpaceOnUse">
	<stop  offset="0" style="stop-color:#B7B8B9"/>
	<stop  offset="0.1885" style="stop-color:#ECECEC"/>
	<stop  offset="0.2572" style="stop-color:#FAFAFA"/>
	<stop  offset="0.3011" style="stop-color:#FFFFFF"/>
	<stop  offset="0.5313" style="stop-color:#FAFAFA"/>
	<stop  offset="0.8449" style="stop-color:#EBECEC"/>
	<stop  offset="1" style="stop-color:#E1E2E3"/>
</radialGradient>
<path id="path59_1_" style="&st5;" d="M4,2.001c-0.551,0-1,0.449-1,1v107.963c0,0.553,0.449,1,1,1
	h59.172c0.264,0,2.763,0.118,2.949-0.068l30.586-30.801C96.895,80.908,97,78.41,97,78.147V3c0-0.551-0.448-1-1-1H4z"/>
<g>
	<defs>
		<polygon id="SVGID_1_" points="98,81.001 66,113.001 58,113.001 58,73.001 98,73.001 		"/>
	</defs>
	<clipPath id="SVGID_2_">
		<use xlink:href="#SVGID_1_"  style="overflow:visible;"/>
	</clipPath>
	<g id="path5540_1_"  style="&st12;">
	</g>
</g>
<linearGradient id="path14523_2_" gradientUnits="userSpaceOnUse" x1="84.5625" y1="11.563" x2="77.1738" y2="18.7224" gradientTransform="matrix(1 0 0 -1 0 111.0352)">
	<stop  offset="0" style="stop-color:#A2A2A2"/>
	<stop  offset="1" style="stop-color:#FFFFFF"/>
</linearGradient>
<path id="path14523_1_"  style="&st0;" d="M65.172,113.001c0,0,11.914-9.914,17.414-15.414
	S98,80.173,98,80.173s-13.75,8.828-24,8.828C74,99.251,65.172,113.001,65.172,113.001z"/>
<g style="&st1;">
	<polyline style="&st4;" points="65.75,114.251 0.666,114.251 0.666,0.667 98.5,0.667 98.5,80.126 	"/>
	<line style="&st4;" x1="0.666" y1="101.605" x2="70.625" y2="101.605"/>
	<line style="&st4;" x1="0.666" y1="89.017" x2="72.5" y2="89.017"/>
	<line style="&st4;" x1="0.666" y1="76.371" x2="98.5" y2="76.371"/>
	<line style="&st4;" x1="0.666" y1="63.781" x2="98.5" y2="63.781"/>
	<line style="&st4;" x1="0.666" y1="51.137" x2="98.5" y2="51.137"/>
	<line style="&st4;" x1="0.666" y1="38.547" x2="98.5" y2="38.547"/>
	<line style="&st4;" x1="0.666" y1="25.902" x2="98.5" y2="25.902"/>
	<line style="&st4;" x1="0.666" y1="13.312" x2="98.5" y2="13.312"/>
	<line style="&st4;" x1="86.267" y1="0" x2="86.267" y2="86.168"/>
	<line style="&st4;" x1="65.363" y1="0.667" x2="65.363" y2="114.251"/>
	<line style="&st4;" x1="43.603" y1="0.667" x2="43.603" y2="114.251"/>
</g>
<rect x="3.334" y="13.168" style="&st8;" width="93.499" height="12.832"/>
<rect x="3.334" y="63.502" style="&st8;" width="93.499" height="12.832"/>
<radialGradient id="SVGID_3_" cx="15.9575" cy="83.7627" r="109.517" gradientTransform="matrix(0.843 0 0 0.7956 1.7886 14.8627)" gradientUnits="userSpaceOnUse">
	<stop  offset="0" style="stop-color:#FF0000"/>
	<stop  offset="0.1652" style="stop-color:#FC0000"/>
	<stop  offset="0.296" style="stop-color:#F20000"/>
	<stop  offset="0.4151" style="stop-color:#E10000"/>
	<stop  offset="0.5271" style="stop-color:#CA0000"/>
	<stop  offset="0.6343" style="stop-color:#AB0000"/>
	<stop  offset="0.7378" style="stop-color:#860000"/>
	<stop  offset="0.8384" style="stop-color:#590000"/>
	<stop  offset="0.9342" style="stop-color:#270000"/>
	<stop  offset="1" style="stop-color:#000000"/>
</radialGradient>
<path style="&st10;" d="M3.676,94.512c0.503-0.202,0.33-0.853,0.607-1.203c1.254,0.776,1.553,2.01,2.43,2.805
	c0.877-0.089-0.27-1.514,0.607-1.602c0.665,0.363,0.051,1.567,0.607,2.002c0.449-0.036,0.278-0.484,0.305-0.802
	c0.876,2.894,1.627,5.869,1.518,9.415c0.936-1.054,0.514-3,0.607-4.607c0.613,0.985,0.148,5.425,0.91,4.807
	c-0.277-1.519,0.322-2.456,0.608-3.605c0.503,0.223,0.228,1.271,1.214,0.602c0.318,1.326,0.334,2.85,0.607,4.206
	c0.707-1.871,0.102-4.605,0.303-6.811c0.459,3.973,0.787,8.027,0.912,12.218c0.529,0.195,0.271-5.095,0.606-1.602
	c0.784-3.022,0.589-8.423,0.608-12.619c0.705,2.071,0.104,5.009,0.303,7.412c0.291,1.979,0.377-1.281,0.304-2.005
	c0-1.268,0-2.535,0-3.805c0.78,0.227-0.122,3.452,0.607,2.403c0-1.201,0-2.403,0-3.604c0.704,1.07,0.104,3.002,0.304,4.406
	c1.098-1.145,0.418-3.463,0.607-5.208c0.705,1.338,0.104,3.538,0.303,5.208c0.176,1.095,0.514-0.56,0.608-1.403
	c0.319-2.848,0.27-5.89,1.215-7.811c0.533,0.499,0.556,0.327,0.911-0.199c0.721,0.124-0.048,1.232,0.607,1.402
	c0.477-0.019,1.053,0.026,0.91-0.401c0.514,0.396,0.332,1.251,0.607,1.803c0.692-0.278,0.114-1.394,0.304-2.003
	c0.812,0.867,0.577,2.424,0.606,3.805c0.451-0.439,0.582-1.281,0.609,0c0.7-0.671,0.105-2.2,0.303-3.203
	c0.689,0.213,0.115,1.259,0.303,1.802c0.776-0.023,0.604-0.67,0.608-1.202c1.343,1.317,0.159,4.301,0.911,6.008
	c0.953-0.304,0.506-1.535,0.607-2.401c0.704,1.137,0.104,3.135,0.304,4.605c1.132-1.389,0.749-3.777,0.91-5.809
	c0.669,3.433,0.007,7.741,0.911,11.017c0.507-3.003,0.622-6.266,0.607-9.615c0.525,0.223,0.732-0.08,0.607-1.201
	c-0.225,0.578,1.19,5.224,0.607,5.608c1.301-0.857-1.027-5.292,0-6.209c1.766,1.272,0.555,5.612,0.91,8.414
	c1.373-2.701,1.877-5.974,1.823-9.615c0.735,0.849-0.132,2.756,0.909,3.404c1.061-0.103,0.446-1.309,0.607-2.003
	c0.451,0.037,0.279,0.484,0.305,0.802c0.26-1.966,0.924-3.664,1.215-5.607c0.288,0.41,0.98,0.555,1.518,0.8
	c0.658,0.034,0.139-0.71,0.303-1.001c0.962-0.099,0.114,0.993,1.216,0.802c0-0.202,0-0.4,0-0.601c0.452,0.169,0.653,0.503,0.607,1
	c1.185-1.732,4.054,0.632,5.466-0.8c-0.216,1.451,0.934-0.275,0.607,1.401c0.403-0.336,1.174-0.428,0.912-1.203
	c0.406,0.133,0.564,0.43,0.605,0.802c0.803,0.061,0.784-0.417,0.912-0.802c0.68,0.888,1.62,1.604,1.519,3.006
	c1.101-0.142,0.418-1.459,0.607-2.204c0.702,0.674,0.106,2.2,0.304,3.204c1.009-0.335,0.549-1.639,0.909-2.401
	c0.741,3.05,0.628,6.663,1.521,9.613c0.892-1.803,0.655-3.785,1.214-5.407c1.02,2.064,0.349,5.244,0.911,7.61
	c0.71-0.402-0.037-3.495,0.607-4.607c1.237,0.436,0.337,6.493,0.909,2.604c0-2.137,0-4.273,0-6.409
	c0.463,0.696,0.55,1.641,0.609,2.604c0.581,0.436,0.19-1.465,0.303-2.003c0.854,0.637-0.229,2.555,0.607,3.204
	c0.626-2.19,0.418-4.932,0.91-7.209c0.547,0.44,0.267,1.426,0.609,2.002c0.64-1.461,1.145-2.619,2.126-4.206
	c0.449,0.036,0.276,0.483,0.303,0.802c0.408-0.041,0.564-0.833,0.607,0c0.534-0.048,0.692-0.344,0.607-0.802
	c0.406,0.133,0.564,0.428,0.605,0.802c0.426-0.053,0.348-0.439,0.607-0.601c0.669,0.158,1.214,0.4,1.215,1
	c0.436-0.247,0.577-0.688,0.607-1.201c0.47,1.178,1.485,0.117,2.127,0.802c0.626-0.054,0.071-0.887,0.912-0.802
	c-0.07,0.341,0.34,0.496,0.303,0c0.684,0.08-0.047,1.25,0.91,0.6c0-0.398,0-0.8,0-1.2c-0.371-0.022-0.718-0.06-0.607-0.401
	c-0.353,0.035-0.33,0.317-0.303,0.602c-0.45-0.037-0.279-0.483-0.303-0.802c-1.299,0.227-5.411,1.19-5.771-0.201
	c-0.45,0.039-0.278,0.485-0.303,0.803c-1.089-0.074-1.112-0.538-2.127-0.201c-0.266-1.293-1.043-2.248-1.213-3.604
	c-0.383,0.082-0.621,0.258-0.606,0.602c-1.47-1.235,0.153-4.509-1.52-5.608c0,1.001,0,2.002,0,3.004
	c-0.698-0.475-0.108-1.798-0.305-2.603c-0.831,0.452,0.199,2.133-0.607,2.603c-0.706-1.67-0.103-4.204-0.305-6.209
	c-0.354-0.566-0.55,2.257-0.606,3.205c-0.908-1.004-0.527-2.855-0.607-4.406c0.083-2.561-0.468-0.668-0.606,0.602
	c-0.248,2.237,0.321,4.819-0.304,6.007c-0.689-0.213-0.117-1.258-0.304-1.801c-1.144-0.031-0.812-2.634-0.911-4.007
	c-0.68,2.557-1.66,6.649-1.518,10.415c-0.575-0.488-0.652-1.306-0.607-2.202c-0.658,0.366-0.64,1.18-0.607,2.001
	c-0.45-0.037-0.278-0.482-0.304-0.802c-0.722,0.458-0.988,1.22-0.911,2.203c-0.408-0.13-0.565-0.427-0.607-0.8
	c-0.66-0.033-0.137,0.71-0.304,1.001c-0.191-0.341-0.917-0.328-1.216-0.6c-0.623,0.255-1.539,0.318-1.518,1
	c-0.688-1.007-1.078,0.218-1.518-0.8c-0.465,0.576-1.096-0.103-0.912,1.001c-0.445-0.174-0.962-0.3-0.91-0.803
	c-0.7,1.09-1.729-0.424-2.429,1.003c-0.453-0.169-0.441-0.645-0.607-1.003c-0.409,0.133-0.566,0.43-0.606,0.803
	c-0.428-0.052-0.348-0.438-0.609-0.602c-0.531,0.184-1.053,0.372-0.91,1.002c-0.66,0.035-0.139-0.71-0.305-1.002
	c-0.447,0.105-0.766,0.297-1.215,0.4c0.332-2.021-0.832-3.057-0.607-5.006c-0.469-0.612-0.267,0.868-0.303,1.201
	c-0.695-0.343-0.111-1.529-0.305-2.204c-0.316,0.568-0.948,0.811-0.91-0.2c-0.695,0.344-0.111,1.529-0.303,2.205
	c-0.723-3.089-1.08-5.836-1.823-9.214c-1.048,1.211,0.628,6.912-0.911,7.811c0,0.602,0,1.201,0,1.803
	c-0.706-1.403-0.103-3.67-0.303-5.407c-0.72-2.907,0.201,1.919-0.305,3.003c0.471-1.008-1.161-0.108-0.607,0.401
	c-0.477-3.489-0.477-7.295-0.607-11.015c-1.336,3.323-0.746,7.918-0.91,12.017c-0.67-1.628-0.053-4.104-0.91-5.609
	c-0.703,0.872-0.106,2.603-0.304,3.806c-0.593-0.344-0.654-1.036-0.607-1.801c-0.663,0.833-0.249,4.106-0.911,5.607
	c-0.68-0.087-0.123-0.986-0.304-1.401c-1.155-0.162-0.386,0.946-0.608,1.401c-0.688-0.212-0.115-1.258-0.303-1.804
	c-0.45,0.038-0.278,0.484-0.303,0.802c-0.68-0.085-0.123-0.987-0.304-1.401c-0.64-0.146-0.153,2.163-0.306,3.003
	c-0.912,0.202-0.537-0.445-0.606-0.802c-0.844,0.246-0.564,1.231-0.607,2.005c-0.715-0.263,0.134-1.557-0.911-1.604
	c-0.632,0.384-0.002,1.602-1.215,1.604c0-0.268,0-0.534,0-0.802c-0.449,0.037-0.279,0.484-0.304,0.802
	c-2.111-2.08-0.87-7.437-2.126-9.415c0,1.938,0,3.874,0,5.809c-0.885-1.283,0.272-3.917-0.607-5.206
	c-0.703,1.203-0.103,3.27-0.303,4.807c-0.701-0.74-0.105-2.334-0.304-3.404c0.032-0.668-0.147-1.101-0.304,0
	c-0.838,5.912,0.023-6.463-0.607-5.208c-1.706,3.394,1.255,4.666,0,7.811c-0.576-4.025-0.227-8.664-0.607-12.817
	c-0.313-1.778-0.384,4.694-0.606,1.602c-0.159-2.202-0.304-4.211-0.304-0.802c0,4.187-0.791,6.116-0.608,11.216
	c-0.868-1.697,0.247-4.702-0.606-6.408c-0.59,1.146-0.223,2.925-0.911,4.006c-0.669-0.024-0.129-0.85-0.304-1.202
	c-0.719,1.181-0.617-0.109-0.606-1.001c-0.354,0.033-0.331,0.316-0.304,0.601c-0.697-0.408-0.11-1.663-0.305-2.403
	c-1.049,1.312-0.449,3.709-0.607,5.608c-0.682-1.352-0.031-3.584-0.607-5.008c-0.196,3.542-1.227,6.534-1.82,9.813
	c-0.408-0.039-0.567-0.832-0.608,0c-0.812-0.131-0.909-0.735-1.519-1.001c-0.701,0.874-0.395,2.41-1.215,3.204
	c-0.948,0.092-0.971-0.428-0.911-1.001c-0.112,0.691-1.673,0.811-1.519-0.2"/>
<g>
	<path style="&st6;" d="M7.879,34.338h2.734v0.492h0.449v1.5h-0.449v0.504H7.879V36.33H7.419v-1.5h0.459V34.338z"/>
	<path style="&st6;" d="M21.519,34.338h2.734v0.492h0.449v1.5h-0.449v0.504h-2.734V36.33H21.06v-1.5h0.459V34.338z"/>
	<path style="&st6;" d="M35.16,34.338h2.734v0.492h0.449v1.5h-0.449v0.504H35.16V36.33H34.7v-1.5h0.459V34.338z"/>
	<path style="&st7;" d="M7.879,46.338h2.734v0.492h0.449v1.5h-0.449v0.504H7.879V48.33H7.419v-1.5h0.459V46.338z"/>
	<path style="&st7;" d="M21.519,46.338h2.734v0.492h0.449v1.5h-0.449v0.504h-2.734V48.33H21.06v-1.5h0.459V46.338z"/>
	<path style="&st7;" d="M35.16,46.338h2.734v0.492h0.449v1.5h-0.449v0.504H35.16V48.33H34.7v-1.5h0.459V46.338z"/>
</g>
<g>
	<path style="&st3;" d="M8.423,14.334h6.492v0.504h1.008v0.492h0.492v0.504h0.504v1.5h-3v-0.996h-0.504v-0.504H9.923v0.504H9.419
		v6.492h0.504v0.504h3.492V22.83h0.504v-0.996h3v1.5h-0.504v0.504h-0.492v0.492h-1.008v0.504H8.423V24.33H7.416v-0.492H6.923v-0.504
		H6.419v-7.5h0.504V15.33h0.492v-0.492h1.008V14.334z"/>
	<path style="&st3;" d="M18.419,18.834h9v1.5h-9V18.834z"/>
	<path style="&st3;" d="M28.919,14.334h10.5v1.5h-7.5v2.004h5.496v0.492h1.008v0.504h0.492v0.504h0.504v3.996h-0.504v0.504h-0.492
		v0.492h-1.008v0.504h-6.492V24.33h-1.008v-0.492h-0.492v-0.504h-0.504v-1.5h3v0.996h0.504v0.504h3.492V22.83h0.504v-3h-0.504
		v-0.492h-6.996V14.334z"/>
</g>
<g>
	<path style="&st11;" d="M56.308,18.11h4.102v6h1.367v-0.996h0.46v-1.008h0.448V21.11h0.459v-3h1.367v3h-0.459v0.996h-0.448v1.008
		h-0.46v0.996h-0.459v0.504h-0.448v0.492h-0.46v0.504h-2.734v-0.504h-0.459v-0.492h-0.449V24.11h-0.459v-0.996h-0.459v-1.008h-0.449
		V21.11h-0.459V18.11z"/>
	<path style="&st11;" d="M67.704,15.11h4.551v0.504h0.919v0.492h0.448v0.504h0.459v3h-0.459v0.504h-0.908v0.492h0.908v0.504h0.459v3
		h-0.459v0.504h-0.448v0.492h-0.919v0.504h-4.551v-0.504h-0.918v-0.492h-0.449V24.11h-0.459v-1.5h1.367v0.996h0.459v0.504h1.816
		v-0.504h0.459V21.11h-0.459v-0.504h-1.367v-0.492h1.367V19.61h0.459v-2.496h-0.459V16.61h-1.816v0.504h-0.459v0.996h-1.367v-1.5
		h0.459v-0.504h0.449v-0.492h0.918V15.11z"/>
	<path style="&st11;" d="M77.275,15.11h4.551v0.504h0.919v0.492h0.448v0.504h0.459v3h-0.459v0.504h-0.448v0.492h-0.46v0.504h-0.459
		v0.504h-0.448v0.492h-0.46v0.504h-0.459v0.504H80.01v0.492h-0.459v0.504h4.102v1.5h-8.203v-2.496h0.459V22.61h0.449v-0.504h0.459
		v-0.492h0.459V21.11h0.449v-0.504h0.459v-0.492h0.459V19.61h0.449v-0.504h0.459v-1.992h-0.459V16.61h-1.816v0.504h-0.459v0.996
		h-1.367v-1.5h0.459v-0.504h0.449v-0.492h0.918V15.11z"/>
</g>
</svg>
