<?xml version="1.0" encoding="utf-8"?>
<!-- Generator: Adobe Illustrator 13.0.0, SVG Export Plug-In . SVG Version: 6.00 Build 14948)  -->
<!DOCTYPE svg PUBLIC "-//W3C//DTD SVG 1.1//EN" "http://www.w3.org/Graphics/SVG/1.1/DTD/svg11.dtd">
<svg version="1.1" id="Layer_1" xmlns="http://www.w3.org/2000/svg" xmlns:xlink="http://www.w3.org/1999/xlink" x="0px" y="0px"
	 width="32px" height="32px" viewBox="0 0 32 32" enable-background="new 0 0 32 32" xml:space="preserve">
<g>
	<rect x="6.967" y="2.825" fill="#575757" width="18.304" height="27.661"/>
	<g opacity="0.5">
		<rect x="6.436" y="3.112" fill="none" stroke="#000000" stroke-width="0.1226" width="19.245" height="27.985"/>
		<line fill="none" stroke="#000000" stroke-width="0.1226" x1="6.436" y1="27.982" x2="25.681" y2="27.982"/>
		<line fill="none" stroke="#000000" stroke-width="0.1226" x1="6.436" y1="24.881" x2="25.681" y2="24.881"/>
		<line fill="none" stroke="#000000" stroke-width="0.1226" x1="6.436" y1="21.766" x2="25.681" y2="21.766"/>
		<line fill="none" stroke="#000000" stroke-width="0.1226" x1="6.436" y1="18.664" x2="25.681" y2="18.664"/>
		<line fill="none" stroke="#000000" stroke-width="0.1226" x1="6.436" y1="15.547" x2="25.681" y2="15.547"/>
		<line fill="none" stroke="#000000" stroke-width="0.1226" x1="6.436" y1="12.445" x2="25.681" y2="12.445"/>
		<line fill="none" stroke="#000000" stroke-width="0.1226" x1="6.436" y1="9.33" x2="25.681" y2="9.33"/>
		<line fill="none" stroke="#000000" stroke-width="0.1226" x1="6.436" y1="6.227" x2="25.681" y2="6.227"/>
		<line fill="none" stroke="#000000" stroke-width="0.1226" x1="23.541" y1="3.112" x2="23.541" y2="31.098"/>
		<line fill="none" stroke="#000000" stroke-width="0.1226" x1="21.403" y1="3.112" x2="21.403" y2="31.098"/>
		<line fill="none" stroke="#000000" stroke-width="0.1226" x1="19.267" y1="3.112" x2="19.267" y2="31.098"/>
		<line fill="none" stroke="#000000" stroke-width="0.1226" x1="17.129" y1="3.112" x2="17.129" y2="31.098"/>
		<line fill="none" stroke="#000000" stroke-width="0.1226" x1="14.986" y1="3.112" x2="14.986" y2="31.098"/>
		<line fill="none" stroke="#000000" stroke-width="0.1226" x1="12.849" y1="3.112" x2="12.849" y2="31.098"/>
		<line fill="none" stroke="#000000" stroke-width="0.1226" x1="10.71" y1="3.112" x2="10.71" y2="31.098"/>
		<line fill="none" stroke="#000000" stroke-width="0.1226" x1="8.573" y1="3.112" x2="8.573" y2="31.098"/>
	</g>
	<path opacity="0.5" fill-rule="evenodd" clip-rule="evenodd" fill="#808080" d="M25.172,3.448
		c-0.098,0.324-0.321-0.064-0.532,0.165c-0.011-0.086,0.065-0.21-0.133-0.22c0.092,0.249-0.224,0.127-0.531,0.111
		c-0.076,0.096,0.161,0.323-0.132,0.33c0.023-0.125-0.449-0.322-0.532-0.221c-0.094,0.227-0.031,0.995-0.399,0.606
		c-0.002,0.309-0.053,1.178-0.53,0.773c0.019,0.283-0.021,0.542-0.267,0.717c-0.078-0.556,0.27-1.289-0.532-1.545
		c-0.067,0.232,0.146,0.869-0.133,0.828c-0.081-0.132,0.167-0.4-0.133-0.441c-0.121,0.096-0.047,0.275-0.266,0.331
		c-0.084-0.204,0.171-0.549-0.132-0.662c-0.137,0.514,0.05,1.162-0.399,1.545c0.015-0.43-0.004-0.844-0.267-1.158
		c-0.174,0.061-0.056,0.522-0.266,0.386c-0.085-0.185,0.172-0.512-0.133-0.606c-0.321,0.737-0.43-0.595-0.931-0.773
		c-0.161,0.099-0.024,0.321-0.266,0.387c-0.137-0.138-0.199-0.412-0.532-0.166c-0.056-0.124-0.284-0.176-0.398-0.276
		c-0.454-0.041-0.17,0.225-0.664,0.167c0.042-0.303-0.296-0.091-0.4,0c0-0.074,0-0.147,0-0.22c-0.292,0.019-0.706,0.099-0.93-0.055
		c-0.15,0.488-0.566,0.868-0.665,1.378c-0.221-0.111,0.011-0.409-0.266-0.496c-0.054,0.401,0.167,0.916-0.266,1.158
		c-0.553-0.193,0.168-0.916-0.665-0.993c-0.077,0.098,0.161,0.324-0.133,0.331c-0.073-0.08,0.155-0.284-0.133-0.275
		c-0.078,0.464,0.207,1.079-0.266,1.378c-0.086-0.258,0.173-0.66-0.133-0.827c-0.088,0.68,0.176,1.507-0.133,2.096
		c-0.321-0.62,0.081-1.541-0.398-2.096c-0.081,0.114,0.214,0.383-0.266,0.331c-0.343-0.06-0.116-0.356-0.399-0.441
		c0.021,0.28-0.035,0.304-0.266,0.11c-0.167,0.118-0.045,0.639-0.266,0.551c-0.268-0.532-0.547-1.059-0.399-1.765
		c-0.428-0.105-0.462-0.053-0.665-0.276c-0.056,0.105-0.047,0.238-0.398,0.221c0.019-0.137,0.024-0.268-0.266-0.276
		c-0.524,0.13-0.736-0.092-1.064,0.167C8.617,3.643,8.844,3.438,8.557,3.448C8.483,3.545,8.489,3.676,8.291,3.723
		C8.277,3.582,8.215,3.459,8.024,3.392C7.718,3.559,7.486,3.757,7.36,3.999L7.293,3.292l0.022-0.138l17.724,0.101L25.172,3.448z"/>
	<path opacity="0.5" fill-rule="evenodd" clip-rule="evenodd" fill="#808080" d="M7.365,16.333c0.143-0.05,0.094-0.21,0.172-0.297
		c0.357,0.192,0.441,0.498,0.69,0.693c0.25-0.021-0.077-0.373,0.172-0.396c0.189,0.09,0.015,0.39,0.173,0.497
		c0.127-0.01,0.079-0.121,0.087-0.199c0.249,0.717,0.462,1.451,0.431,2.328c0.266-0.26,0.146-0.742,0.173-1.139
		c0.174,0.244,0.042,1.342,0.259,1.189c-0.079-0.375,0.092-0.607,0.172-0.893c0.144,0.055,0.065,0.314,0.345,0.148
		c0.091,0.328,0.095,0.705,0.172,1.041c0.201-0.463,0.03-1.139,0.086-1.686c0.13,0.984,0.224,1.986,0.259,3.023
		c0.151,0.049,0.077-1.26,0.172-0.396c0.223-0.746,0.167-2.084,0.173-3.121c0.2,0.512,0.029,1.238,0.086,1.832
		c0.083,0.492,0.107-0.316,0.086-0.494c0-0.314,0-0.629,0-0.941c0.222,0.055-0.035,0.854,0.173,0.594c0-0.297,0-0.594,0-0.893
		c0.2,0.266,0.029,0.744,0.086,1.092c0.313-0.283,0.12-0.857,0.172-1.289c0.201,0.33,0.029,0.875,0.086,1.289
		c0.05,0.27,0.146-0.139,0.172-0.348c0.092-0.705,0.077-1.457,0.346-1.933c0.152,0.124,0.158,0.082,0.259-0.049
		c0.205,0.031-0.013,0.305,0.173,0.346c0.136-0.004,0.299,0.006,0.259-0.099c0.146,0.098,0.094,0.31,0.172,0.446
		c0.196-0.069,0.032-0.345,0.086-0.496c0.23,0.215,0.164,0.601,0.172,0.942c0.128-0.109,0.166-0.318,0.173,0
		c0.199-0.166,0.03-0.545,0.086-0.794c0.195,0.054,0.032,0.312,0.086,0.446c0.22-0.006,0.171-0.166,0.172-0.297
		c0.382,0.327,0.045,1.065,0.259,1.487c0.271-0.076,0.144-0.381,0.173-0.596c0.2,0.281,0.029,0.777,0.086,1.141
		c0.322-0.344,0.213-0.936,0.259-1.438c0.19,0.85,0.002,1.916,0.259,2.725c0.145-0.742,0.177-1.549,0.173-2.377
		c0.149,0.055,0.208-0.02,0.172-0.297c-0.063,0.143,0.339,1.293,0.173,1.387c0.37-0.211-0.292-1.309,0-1.535
		c0.502,0.314,0.158,1.387,0.259,2.08c0.39-0.668,0.534-1.477,0.519-2.378c0.209,0.21-0.038,0.681,0.258,0.843
		c0.301-0.027,0.127-0.324,0.172-0.496c0.129,0.01,0.08,0.119,0.088,0.197c0.074-0.484,0.262-0.905,0.345-1.386
		c0.081,0.101,0.278,0.137,0.432,0.197c0.188,0.009,0.039-0.176,0.086-0.248c0.273-0.025,0.032,0.246,0.345,0.199
		c0-0.05,0-0.1,0-0.148c0.129,0.041,0.187,0.124,0.174,0.248c0.336-0.429,1.15,0.156,1.552-0.199
		c-0.061,0.359,0.268-0.067,0.174,0.347c0.115-0.083,0.333-0.105,0.258-0.297c0.116,0.032,0.161,0.105,0.173,0.197
		c0.228,0.015,0.223-0.103,0.259-0.197c0.194,0.219,0.461,0.396,0.433,0.744c0.313-0.034,0.118-0.361,0.171-0.546
		c0.2,0.167,0.031,0.545,0.087,0.793c0.287-0.084,0.157-0.406,0.259-0.595c0.211,0.755,0.179,1.649,0.433,2.38
		c0.253-0.447,0.186-0.938,0.345-1.34c0.29,0.512,0.1,1.299,0.26,1.885c0.2-0.1-0.012-0.865,0.172-1.141
		c0.352,0.107,0.096,1.607,0.259,0.645c0-0.529,0-1.059,0-1.586c0.131,0.172,0.156,0.406,0.173,0.645
		c0.166,0.107,0.055-0.363,0.086-0.496c0.242,0.158-0.064,0.633,0.173,0.793c0.178-0.543,0.118-1.219,0.259-1.784
		c0.156,0.11,0.075,0.354,0.173,0.497c0.182-0.362,0.325-0.649,0.604-1.042c0.129,0.009,0.079,0.12,0.087,0.199
		c0.115-0.011,0.161-0.206,0.172,0c0.151-0.012,0.198-0.086,0.173-0.199c0.116,0.033,0.162,0.105,0.172,0.199
		c0.121-0.013,0.099-0.11,0.174-0.148c0.188,0.039,0.344,0.099,0.345,0.248c0.125-0.061,0.163-0.17,0.172-0.298
		c0.135,0.292,0.424,0.028,0.605,0.199c0.178-0.014,0.021-0.221,0.259-0.199c-0.02,0.085,0.098,0.123,0.087,0
		c0.193,0.02-0.013,0.31,0.259,0.149c0-0.099,0-0.199,0-0.297c-0.106-0.005-0.204-0.015-0.174-0.099
		c-0.101,0.008-0.094,0.078-0.085,0.149c-0.129-0.01-0.08-0.121-0.087-0.199c-0.369,0.056-1.537,0.294-1.641-0.05
		c-0.126,0.01-0.078,0.121-0.086,0.199c-0.31-0.019-0.316-0.134-0.604-0.05c-0.075-0.32-0.298-0.556-0.346-0.893
		c-0.108,0.021-0.177,0.064-0.173,0.148c-0.416-0.305,0.044-1.115-0.432-1.387c0,0.248,0,0.495,0,0.744
		c-0.198-0.117-0.03-0.445-0.086-0.645c-0.236,0.112,0.057,0.528-0.172,0.645c-0.201-0.414-0.031-1.041-0.087-1.537
		c-0.102-0.14-0.156,0.559-0.172,0.793c-0.258-0.249-0.151-0.707-0.173-1.091c0.023-0.632-0.133-0.165-0.172,0.149
		c-0.071,0.553,0.09,1.192-0.087,1.486c-0.197-0.053-0.033-0.311-0.087-0.445c-0.325-0.008-0.23-0.651-0.258-0.992
		c-0.194,0.633-0.473,1.646-0.433,2.577c-0.163-0.121-0.185-0.322-0.172-0.545c-0.188,0.091-0.182,0.292-0.174,0.496
		c-0.128-0.01-0.078-0.121-0.087-0.199c-0.203,0.113-0.279,0.302-0.258,0.545c-0.115-0.033-0.16-0.105-0.173-0.197
		c-0.188-0.009-0.04,0.175-0.086,0.247c-0.054-0.084-0.26-0.081-0.346-0.148c-0.177,0.063-0.438,0.079-0.431,0.248
		c-0.195-0.249-0.307,0.054-0.433-0.198c-0.131,0.142-0.31-0.026-0.258,0.248c-0.127-0.043-0.273-0.074-0.26-0.199
		c-0.199,0.27-0.492-0.105-0.688,0.249c-0.131-0.042-0.126-0.16-0.174-0.249c-0.115,0.032-0.161,0.106-0.172,0.199
		c-0.122-0.013-0.1-0.109-0.173-0.149c-0.151,0.046-0.301,0.092-0.259,0.248c-0.188,0.009-0.04-0.176-0.087-0.248
		c-0.128,0.026-0.217,0.073-0.345,0.099c0.093-0.5-0.237-0.757-0.173-1.239c-0.134-0.152-0.077,0.215-0.086,0.297
		c-0.197-0.084-0.032-0.379-0.088-0.546c-0.09,0.14-0.269,0.201-0.258-0.049c-0.198,0.084-0.032,0.377-0.087,0.545
		c-0.205-0.764-0.306-1.443-0.518-2.279c-0.298,0.298,0.179,1.711-0.259,1.932c0,0.149,0,0.298,0,0.446
		c-0.201-0.347-0.028-0.907-0.086-1.338c-0.204-0.719,0.058,0.475-0.086,0.743c0.134-0.249-0.33-0.026-0.173,0.1
		c-0.135-0.864-0.135-1.806-0.172-2.727c-0.38,0.823-0.212,1.96-0.259,2.974c-0.19-0.402-0.015-1.015-0.259-1.388
		c-0.2,0.216-0.03,0.645-0.086,0.941c-0.168-0.084-0.186-0.255-0.172-0.445c-0.188,0.206-0.07,1.017-0.259,1.388
		c-0.193-0.021-0.035-0.244-0.086-0.347c-0.328-0.04-0.11,0.234-0.172,0.347c-0.196-0.053-0.033-0.311-0.086-0.446
		c-0.128,0.008-0.08,0.119-0.086,0.197c-0.193-0.021-0.035-0.244-0.086-0.346c-0.181-0.037-0.043,0.535-0.087,0.744
		c-0.259,0.05-0.153-0.111-0.172-0.199c-0.24,0.061-0.161,0.304-0.173,0.496c-0.203-0.065,0.038-0.385-0.259-0.397
		c-0.18,0.095,0,0.396-0.345,0.397c0-0.066,0-0.132,0-0.199c-0.128,0.009-0.08,0.12-0.086,0.199
		c-0.601-0.515-0.248-1.841-0.604-2.33c0,0.479,0,0.958,0,1.438c-0.251-0.318,0.077-0.97-0.172-1.289
		c-0.201,0.297-0.03,0.809-0.086,1.189c-0.199-0.183-0.03-0.578-0.086-0.842c0.009-0.166-0.042-0.273-0.086,0
		c-0.238,1.463,0.006-1.599-0.173-1.289c-0.485,0.839,0.356,1.155,0,1.933c-0.163-0.997-0.065-2.144-0.172-3.172
		c-0.089-0.44-0.109,1.162-0.173,0.397c-0.045-0.545-0.086-1.042-0.086-0.199c0,1.036-0.225,1.513-0.173,2.775
		c-0.246-0.419,0.07-1.163-0.172-1.585c-0.167,0.283-0.063,0.724-0.259,0.991c-0.19-0.006-0.036-0.21-0.086-0.297
		c-0.205,0.292-0.175-0.027-0.172-0.248c-0.101,0.009-0.094,0.078-0.086,0.148c-0.198-0.101-0.031-0.411-0.086-0.595
		c-0.298,0.325-0.128,0.918-0.173,1.387c-0.194-0.334-0.009-0.887-0.173-1.239c-0.056,0.876-0.349,1.617-0.517,2.429
		c-0.117-0.01-0.162-0.206-0.173,0c-0.231-0.033-0.259-0.181-0.432-0.248c-0.2,0.216-0.112,0.596-0.346,0.793
		c-0.269,0.022-0.275-0.106-0.259-0.249c-0.032,0.171-0.475,0.201-0.431-0.048"/>
	<radialGradient id="SVGID_1_" cx="10.7256" cy="12.3667" r="26.8492" gradientUnits="userSpaceOnUse">
		<stop  offset="0" style="stop-color:#FF0000"/>
		<stop  offset="0.1652" style="stop-color:#FC0000"/>
		<stop  offset="0.296" style="stop-color:#F20000"/>
		<stop  offset="0.4151" style="stop-color:#E10000"/>
		<stop  offset="0.5271" style="stop-color:#CA0000"/>
		<stop  offset="0.6343" style="stop-color:#AB0000"/>
		<stop  offset="0.7378" style="stop-color:#860000"/>
		<stop  offset="0.8384" style="stop-color:#590000"/>
		<stop  offset="0.9342" style="stop-color:#270000"/>
		<stop  offset="1" style="stop-color:#000000"/>
	</radialGradient>
	<path opacity="0.8" fill-rule="evenodd" clip-rule="evenodd" fill="url(#SVGID_1_)" d="M7.362,16.374
		c0.146-0.063,0.096-0.262,0.176-0.37c0.365,0.239,0.452,0.619,0.707,0.865c0.255-0.029-0.078-0.468,0.177-0.495
		c0.193,0.112,0.015,0.483,0.176,0.618c0.131-0.012,0.081-0.15,0.088-0.248c0.255,0.891,0.473,1.809,0.441,2.9
		c0.272-0.324,0.15-0.924,0.177-1.418c0.178,0.303,0.043,1.672,0.265,1.48c-0.081-0.469,0.093-0.758,0.177-1.111
		c0.146,0.068,0.066,0.393,0.353,0.186c0.093,0.408,0.098,0.879,0.177,1.297c0.206-0.576,0.029-1.42,0.088-2.1
		c0.133,1.225,0.229,2.473,0.265,3.766c0.154,0.059,0.079-1.57,0.176-0.494c0.228-0.932,0.171-2.596,0.177-3.889
		c0.205,0.639,0.029,1.543,0.088,2.283c0.084,0.611,0.109-0.395,0.088-0.617c0-0.391,0-0.781,0-1.172
		c0.228,0.07-0.035,1.063,0.177,0.74c0-0.369,0-0.74,0-1.111c0.205,0.33,0.03,0.926,0.088,1.359
		c0.319-0.354,0.122-1.068,0.177-1.605c0.205,0.412,0.029,1.09,0.088,1.605c0.051,0.336,0.149-0.172,0.177-0.434
		c0.093-0.877,0.078-1.814,0.354-2.406c0.155,0.153,0.161,0.101,0.264-0.062c0.21,0.038-0.014,0.38,0.177,0.432
		c0.139-0.005,0.307,0.008,0.266-0.124c0.149,0.123,0.096,0.386,0.176,0.556c0.202-0.086,0.033-0.43,0.089-0.618
		c0.235,0.267,0.167,0.747,0.176,1.172c0.131-0.135,0.169-0.395,0.177,0c0.203-0.207,0.03-0.678,0.088-0.987
		c0.2,0.065,0.034,0.388,0.088,0.556c0.227-0.008,0.176-0.207,0.177-0.371c0.391,0.408,0.046,1.326,0.265,1.852
		c0.277-0.094,0.147-0.473,0.176-0.74c0.206,0.352,0.031,0.967,0.088,1.42c0.33-0.428,0.219-1.164,0.265-1.789
		c0.194,1.057,0.002,2.385,0.265,3.393c0.148-0.926,0.181-1.93,0.177-2.961c0.152,0.068,0.212-0.025,0.176-0.371
		c-0.065,0.18,0.346,1.609,0.177,1.729c0.377-0.264-0.299-1.631,0-1.914c0.513,0.393,0.161,1.729,0.264,2.592
		c0.399-0.83,0.545-1.84,0.53-2.961c0.214,0.262-0.038,0.85,0.265,1.049c0.308-0.031,0.13-0.402,0.178-0.617
		c0.13,0.012,0.079,0.148,0.089,0.246c0.073-0.605,0.267-1.128,0.351-1.728c0.085,0.127,0.286,0.172,0.443,0.248
		c0.191,0.009,0.039-0.219,0.087-0.31c0.28-0.03,0.034,0.307,0.354,0.248c0-0.062,0-0.124,0-0.186
		c0.131,0.054,0.189,0.155,0.177,0.31c0.344-0.534,1.178,0.194,1.589-0.247c-0.062,0.447,0.272-0.085,0.177,0.432
		c0.118-0.103,0.341-0.131,0.265-0.37c0.119,0.04,0.165,0.132,0.177,0.246c0.233,0.02,0.229-0.127,0.267-0.246
		c0.197,0.272,0.47,0.493,0.44,0.926c0.319-0.043,0.122-0.45,0.177-0.68c0.203,0.208,0.031,0.678,0.088,0.989
		c0.293-0.104,0.16-0.506,0.265-0.741c0.216,0.94,0.183,2.054,0.442,2.962c0.259-0.555,0.189-1.166,0.353-1.666
		c0.298,0.637,0.102,1.615,0.265,2.346c0.206-0.125-0.011-1.076,0.177-1.42c0.359,0.135,0.099,2.002,0.266,0.803
		c0-0.658,0-1.316,0-1.975c0.134,0.213,0.159,0.504,0.177,0.803c0.169,0.133,0.056-0.451,0.089-0.617
		c0.247,0.195-0.067,0.787,0.175,0.986c0.184-0.674,0.122-1.52,0.266-2.222c0.158,0.136,0.077,0.44,0.177,0.618
		c0.186-0.451,0.333-0.808,0.618-1.297c0.131,0.012,0.081,0.15,0.089,0.248c0.119-0.013,0.164-0.256,0.175,0
		c0.156-0.015,0.202-0.106,0.179-0.248c0.117,0.042,0.163,0.133,0.176,0.248c0.124-0.016,0.101-0.136,0.176-0.186
		c0.195,0.05,0.354,0.125,0.354,0.31c0.125-0.077,0.166-0.212,0.177-0.371c0.136,0.363,0.431,0.036,0.617,0.248
		c0.182-0.018,0.021-0.273,0.265-0.248c-0.02,0.105,0.1,0.153,0.089,0c0.199,0.025-0.013,0.385,0.266,0.186c0-0.125,0-0.247,0-0.37
		c-0.108-0.008-0.209-0.019-0.177-0.124c-0.104,0.011-0.096,0.098-0.089,0.186c-0.13-0.012-0.081-0.15-0.089-0.248
		c-0.378,0.069-1.572,0.367-1.678-0.062c-0.131,0.012-0.08,0.149-0.087,0.248c-0.317-0.023-0.324-0.167-0.618-0.062
		c-0.079-0.398-0.305-0.693-0.354-1.112c-0.11,0.026-0.18,0.081-0.176,0.186c-0.428-0.381,0.044-1.39-0.443-1.728
		c0,0.308,0,0.617,0,0.926c-0.201-0.146-0.03-0.554-0.086-0.802c-0.243,0.139,0.056,0.658-0.178,0.802
		c-0.205-0.515-0.03-1.296-0.088-1.914c-0.104-0.174-0.16,0.696-0.178,0.988c-0.264-0.31-0.154-0.881-0.176-1.358
		c0.023-0.789-0.137-0.206-0.177,0.186c-0.071,0.689,0.093,1.485-0.088,1.851c-0.201-0.065-0.034-0.387-0.089-0.555
		c-0.332-0.01-0.235-0.812-0.265-1.235c-0.197,0.788-0.482,2.049-0.441,3.209c-0.166-0.151-0.19-0.402-0.177-0.679
		c-0.191,0.113-0.186,0.364-0.177,0.617c-0.131-0.011-0.08-0.149-0.088-0.247c-0.21,0.141-0.288,0.376-0.267,0.679
		c-0.116-0.041-0.163-0.131-0.175-0.247c-0.192-0.011-0.04,0.219-0.089,0.308c-0.055-0.105-0.267-0.101-0.354-0.184
		c-0.181,0.078-0.448,0.097-0.441,0.308c-0.2-0.311-0.313,0.067-0.44-0.248c-0.136,0.178-0.319-0.031-0.266,0.31
		c-0.13-0.055-0.28-0.093-0.266-0.248c-0.203,0.336-0.502-0.13-0.706,0.309c-0.131-0.052-0.128-0.199-0.176-0.309
		c-0.12,0.041-0.166,0.132-0.177,0.248c-0.126-0.017-0.102-0.136-0.178-0.186c-0.154,0.057-0.306,0.115-0.265,0.31
		c-0.19,0.009-0.04-0.219-0.089-0.31c-0.131,0.033-0.222,0.091-0.353,0.124c0.097-0.623-0.242-0.942-0.177-1.543
		c-0.136-0.188-0.078,0.268-0.087,0.371c-0.203-0.106-0.033-0.472-0.089-0.68c-0.093,0.175-0.275,0.25-0.266-0.062
		c-0.202,0.106-0.032,0.471-0.088,0.679c-0.21-0.952-0.314-1.798-0.531-2.839c-0.305,0.374,0.183,2.131-0.264,2.408
		c0,0.184,0,0.37,0,0.554c-0.206-0.432-0.03-1.129-0.088-1.666c-0.21-0.896,0.058,0.591-0.089,0.926
		c0.137-0.31-0.338-0.034-0.177,0.124c-0.138-1.076-0.138-2.248-0.177-3.395c-0.389,1.024-0.217,2.441-0.264,3.703
		c-0.196-0.501-0.016-1.265-0.265-1.728c-0.205,0.269-0.031,0.802-0.089,1.172c-0.172-0.105-0.19-0.319-0.176-0.555
		c-0.192,0.256-0.073,1.265-0.265,1.728c-0.198-0.027-0.036-0.304-0.088-0.432c-0.336-0.05-0.112,0.292-0.177,0.432
		c-0.2-0.066-0.034-0.389-0.088-0.556c-0.131,0.012-0.081,0.148-0.088,0.246c-0.198-0.026-0.036-0.304-0.089-0.432
		c-0.186-0.044-0.044,0.667-0.088,0.926c-0.266,0.063-0.156-0.137-0.176-0.247c-0.246,0.075-0.164,0.379-0.177,0.617
		c-0.208-0.081,0.039-0.479-0.265-0.493c-0.184,0.119,0,0.493-0.354,0.493c0-0.082,0-0.164,0-0.247
		c-0.13,0.012-0.081,0.149-0.088,0.247c-0.614-0.641-0.253-2.292-0.618-2.9c0,0.597,0,1.193,0,1.79
		c-0.257-0.396,0.079-1.207-0.177-1.604c-0.205,0.37-0.03,1.007-0.088,1.48c-0.204-0.227-0.031-0.718-0.088-1.048
		c0.009-0.207-0.043-0.339-0.088,0c-0.244,1.821,0.006-1.991-0.177-1.605c-0.497,1.046,0.365,1.438,0,2.407
		c-0.167-1.241-0.066-2.67-0.176-3.95c-0.091-0.548-0.112,1.445-0.177,0.494c-0.046-0.68-0.088-1.298-0.088-0.248
		c0,1.29-0.23,1.884-0.177,3.456c-0.252-0.522,0.072-1.449-0.176-1.975c-0.171,0.353-0.065,0.901-0.265,1.234
		c-0.195-0.007-0.037-0.262-0.088-0.37c-0.209,0.364-0.18-0.034-0.176-0.308c-0.104,0.01-0.096,0.096-0.088,0.184
		c-0.203-0.125-0.032-0.512-0.088-0.74c-0.305,0.404-0.131,1.143-0.177,1.728c-0.198-0.417-0.01-1.104-0.177-1.543
		c-0.057,1.092-0.356,2.014-0.529,3.024c-0.118-0.013-0.164-0.256-0.176,0c-0.236-0.041-0.265-0.227-0.442-0.309
		c-0.204,0.27-0.115,0.743-0.353,0.988c-0.276,0.028-0.283-0.131-0.266-0.309c-0.033,0.213-0.486,0.25-0.441-0.062"/>
	<radialGradient id="SVGID_2_" cx="15.6484" cy="1.0801" r="15.6984" gradientUnits="userSpaceOnUse">
		<stop  offset="0" style="stop-color:#FF0000"/>
		<stop  offset="0.1652" style="stop-color:#FC0000"/>
		<stop  offset="0.296" style="stop-color:#F20000"/>
		<stop  offset="0.4151" style="stop-color:#E10000"/>
		<stop  offset="0.5271" style="stop-color:#CA0000"/>
		<stop  offset="0.6343" style="stop-color:#AB0000"/>
		<stop  offset="0.7378" style="stop-color:#860000"/>
		<stop  offset="0.8384" style="stop-color:#590000"/>
		<stop  offset="0.9342" style="stop-color:#270000"/>
		<stop  offset="1" style="stop-color:#000000"/>
	</radialGradient>
	<path opacity="0.8" fill-rule="evenodd" clip-rule="evenodd" fill="url(#SVGID_2_)" d="M25.172,3.202
		c-0.098,0.325-0.321-0.064-0.532,0.165c-0.011-0.086,0.065-0.21-0.133-0.22c0.092,0.249-0.224,0.127-0.531,0.111
		c-0.076,0.096,0.161,0.323-0.132,0.331c0.023-0.125-0.449-0.322-0.532-0.222c-0.094,0.229-0.031,0.995-0.399,0.607
		c-0.002,0.308-0.053,1.177-0.53,0.772C22.4,5.03,22.361,5.29,22.115,5.463c-0.078-0.555,0.27-1.289-0.532-1.544
		c-0.067,0.232,0.146,0.868-0.133,0.828c-0.081-0.133,0.167-0.4-0.133-0.442c-0.121,0.097-0.047,0.276-0.266,0.331
		c-0.084-0.204,0.171-0.549-0.132-0.662c-0.137,0.514,0.05,1.161-0.399,1.544c0.015-0.429-0.004-0.845-0.267-1.158
		c-0.174,0.061-0.056,0.522-0.266,0.386c-0.085-0.186,0.172-0.512-0.133-0.607c-0.321,0.738-0.43-0.594-0.931-0.773
		c-0.161,0.099-0.024,0.322-0.266,0.387c-0.137-0.137-0.199-0.412-0.532-0.165c-0.056-0.124-0.284-0.177-0.398-0.276
		c-0.454-0.042-0.17,0.225-0.664,0.166c0.042-0.303-0.296-0.09-0.4,0c0-0.073,0-0.147,0-0.22c-0.292,0.019-0.706,0.099-0.93-0.056
		c-0.15,0.488-0.566,0.868-0.665,1.379c-0.221-0.111,0.011-0.41-0.266-0.497C14.75,4.485,14.971,5,14.538,5.243
		c-0.553-0.193,0.168-0.916-0.665-0.993c-0.077,0.098,0.161,0.325-0.133,0.332c-0.073-0.081,0.155-0.285-0.133-0.276
		c-0.078,0.464,0.207,1.079-0.266,1.38c-0.086-0.258,0.173-0.661-0.133-0.828c-0.088,0.681,0.176,1.507-0.133,2.096
		c-0.321-0.62,0.081-1.542-0.398-2.096c-0.081,0.114,0.214,0.383-0.266,0.331c-0.343-0.06-0.116-0.356-0.399-0.441
		c0.021,0.28-0.035,0.304-0.266,0.11c-0.167,0.118-0.045,0.639-0.266,0.552c-0.268-0.533-0.547-1.06-0.399-1.766
		c-0.428-0.105-0.462-0.053-0.665-0.276c-0.056,0.106-0.047,0.238-0.398,0.222c0.019-0.137,0.024-0.268-0.266-0.276
		C9.229,3.441,9.017,3.219,8.689,3.478c-0.072-0.08,0.155-0.285-0.132-0.275C8.483,3.3,8.489,3.431,8.291,3.478
		C8.277,3.337,8.215,3.215,8.024,3.147C7.718,3.314,7.486,3.511,7.36,3.753L7.293,3.046l0.022-0.138l17.724,0.101L25.172,3.202z"/>
	
		<radialGradient id="SVGID_3_" cx="7.7427" cy="31.498" r="25.3841" gradientTransform="matrix(1 0 0 0.8768 0 -3.1205)" gradientUnits="userSpaceOnUse">
		<stop  offset="0" style="stop-color:#FF0000"/>
		<stop  offset="0.1652" style="stop-color:#FC0000"/>
		<stop  offset="0.296" style="stop-color:#F20000"/>
		<stop  offset="0.4151" style="stop-color:#E10000"/>
		<stop  offset="0.5271" style="stop-color:#CA0000"/>
		<stop  offset="0.6343" style="stop-color:#AB0000"/>
		<stop  offset="0.7378" style="stop-color:#860000"/>
		<stop  offset="0.8384" style="stop-color:#590000"/>
		<stop  offset="0.9342" style="stop-color:#270000"/>
		<stop  offset="1" style="stop-color:#000000"/>
	</radialGradient>
	<path opacity="0.8" fill-rule="evenodd" clip-rule="evenodd" fill="url(#SVGID_3_)" d="M26.938,30.115
		c-0.453-0.074-0.68-0.004-1.12,0c-0.131-0.033-0.016-0.203-0.188-0.211c0,0.07,0,0.141,0,0.211
		c-0.398-0.08-0.406-0.109-0.653,0.053c-0.051-0.076,0.109-0.271-0.094-0.264c0.003,0.09-0.069,0.137-0.188,0.158
		c0-0.053,0-0.105,0-0.158c-0.3-0.047-0.128,0.174-0.373,0.158c0.008-0.074,0.017-0.15-0.094-0.158
		c-0.008,0.279-0.052,0.063-0.187,0c-0.091,0.055-0.185,0.107-0.28,0.158c-0.051-0.076,0.108-0.273-0.093-0.264
		c-0.109,0.205-0.245,0.016-0.374-0.053c-0.113,0.094-0.017,0.309-0.187,0.369c-0.056-0.109,0.115-0.346-0.093-0.369
		c-0.057,0.334-0.412-0.354-0.468-0.527c0.032,0.365-0.278,0.217-0.372,0.475c-0.067-0.465-0.037,0.078-0.188,0.158
		c0.027-0.369-0.004-0.701-0.28-0.896c-0.06,0.16,0.12,0.455-0.094,0.527c-0.058-0.547,0.15-1.246-0.188-1.637
		c-0.055,0.111,0.115,0.348-0.093,0.371c-0.021-0.639,0.001-1.303-0.281-1.795c-0.114,0.869-0.156,1.777-0.28,2.639
		c-0.015-1.152-0.041-2.299-0.187-3.375c0,0.193,0,0.385,0,0.578c-0.278,0.828,0.126,2.041-0.28,2.797
		c-0.115-1.184,0.237-2.631-0.187-3.641c-0.063,1.459-0.182,2.887-0.279,4.326c0.013-0.67-0.035-1.525-0.095-2.373
		c-0.011-0.174-0.043-0.719-0.093-0.16c0,0.178,0,0.354,0,0.529c-0.269,0.096-0.084,0.445-0.279,0.58
		c-0.09-0.576,0.127-0.896,0-1.268c-0.063-0.18-0.065,0.76-0.188,0.949c0.07-0.404-0.111-0.99-0.094-0.262
		c-0.06,0.352,0.124,0.842-0.093,1.107c0.021-0.189-0.004-1.049-0.093-0.527c-0.062,0.281,0.121,0.703-0.094,0.896
		c-0.053-0.076,0.108-0.273-0.093-0.264c-0.014,0.363-0.044,0.715-0.188,1.002c-0.012-0.295-0.153,0.068-0.279-0.211
		c0.047,0.266-0.433,0.234-0.468,0.053c0.019,0.152,0.013,0.289-0.28,0.264c-0.253-0.209-0.157-0.613-0.374-0.844
		c-0.187,0.07-0.217,0.229-0.467,0.264c-0.013-0.219-0.061-0.01-0.187,0c-0.183-0.863-0.5-1.652-0.56-2.584
		c-0.178,0.375,0.023,0.961-0.188,1.318c-0.048-0.5,0.136-1.133-0.186-1.477c-0.06,0.193,0.121,0.523-0.094,0.633
		c0.008-0.076,0.016-0.15-0.093-0.16c0.003,0.236,0.035,0.576-0.187,0.266c-0.054,0.092,0.113,0.311-0.093,0.316
		c-0.212-0.285-0.1-0.754-0.28-1.055c-0.262,0.449,0.08,1.24-0.187,1.688c0.056-1.344-0.187-1.852-0.187-2.955
		c0-0.896-0.044-0.369-0.094,0.213c-0.068,0.813-0.091-0.891-0.187-0.424l0.012,0.033c-0.118,1.096-0.022,2.355-0.199,3.416
		c-0.098-0.787-0.185-0.854-0.174-0.68c-0.061,0.281,0.017,0.697-0.199,0.891c-0.062-0.404,0.124-0.949-0.093-1.266
		c-0.27,0.34,0.085,1.033-0.187,1.371c0-0.51,0-1.02,0-1.529c-0.385,0.52-0.004,1.932-0.654,2.479
		c-0.008-0.082,0.045-0.201-0.094-0.211c0,0.07,0,0.141,0,0.211c-0.373,0-0.178-0.32-0.373-0.422
		c-0.321,0.012-0.06,0.354-0.281,0.422c-0.013-0.203,0.074-0.463-0.186-0.527c-0.021,0.094,0.094,0.266-0.187,0.211
		c-0.046-0.221,0.103-0.83-0.093-0.791c-0.056,0.109,0.116,0.348-0.094,0.369c-0.008-0.084,0.044-0.201-0.093-0.211
		c-0.058,0.143,0.119,0.42-0.093,0.475c-0.068-0.119,0.168-0.41-0.187-0.369c-0.056,0.109,0.115,0.346-0.093,0.369
		c-0.204-0.395-0.076-1.258-0.28-1.477c0.015,0.201-0.005,0.383-0.187,0.475c-0.061-0.316,0.123-0.773-0.093-1.002
		c-0.264,0.396-0.074,1.049-0.281,1.477c-0.05-1.078,0.131-2.289-0.28-3.164c-0.04,0.979-0.04,1.98-0.187,2.9
		c0.171-0.133-0.331-0.371-0.187-0.105c-0.156-0.285,0.127-1.557-0.094-0.791c-0.062,0.457,0.125,1.055-0.093,1.424
		c0-0.158,0-0.316,0-0.475c-0.473-0.236,0.042-1.738-0.28-2.057c-0.229,0.889-0.339,1.613-0.561,2.426
		c-0.059-0.176,0.121-0.488-0.093-0.58c0.011,0.266-0.183,0.201-0.281,0.053c-0.059,0.178,0.121,0.49-0.093,0.58
		c-0.011-0.088,0.051-0.477-0.093-0.316c0.069,0.516-0.289,0.787-0.187,1.318c-0.138-0.027-0.236-0.078-0.374-0.105
		c-0.052,0.078,0.108,0.273-0.094,0.266c0.045-0.168-0.116-0.217-0.28-0.266c-0.08,0.043-0.056,0.145-0.187,0.158
		c-0.013-0.098-0.062-0.176-0.187-0.211c-0.052,0.096-0.048,0.219-0.187,0.264l-0.023,0.152l18.015-0.158
		C24.287,30.287,27.31,30.34,26.938,30.115z"/>
	<g>
		<g>
			
				<radialGradient id="SVGID_4_" cx="25.0439" cy="26.7939" r="22.8404" gradientTransform="matrix(1 0 0 1 0.8125 0.709)" gradientUnits="userSpaceOnUse">
				<stop  offset="0" style="stop-color:#0F2539"/>
				<stop  offset="1" style="stop-color:#000000"/>
			</radialGradient>
			<path fill="url(#SVGID_4_)" d="M25.755,1.845H6.769c-1.594,0-2.887,1.33-2.887,2.971v23.518c0,1.639,1.292,2.969,2.887,2.969
				h18.986c1.595,0,2.886-1.33,2.886-2.969V4.816C28.641,3.175,27.35,1.845,25.755,1.845z M25.025,29.645
				c0,0.242-0.196,0.439-0.439,0.439H7.855c-0.242,0-0.439-0.197-0.439-0.439v-5.377c0-0.244,0.197-0.441,0.439-0.441h16.731
				c0.243,0,0.439,0.197,0.439,0.441V29.645z M25.025,21.35c0,0.244-0.197,0.441-0.441,0.441H7.857
				c-0.243,0-0.441-0.197-0.441-0.441V9.771c0-0.243,0.198-0.441,0.441-0.441h16.727c0.244,0,0.441,0.198,0.441,0.441V21.35z
				 M25.025,6.846c0,0.244-0.197,0.441-0.441,0.441H7.857c-0.243,0-0.441-0.197-0.441-0.441V3.472c0-0.244,0.198-0.441,0.441-0.441
				h16.727c0.244,0,0.441,0.197,0.441,0.441V6.846z"/>
		</g>
	</g>
	<linearGradient id="SVGID_5_" gradientUnits="userSpaceOnUse" x1="16.3228" y1="6.3481" x2="16.3228" y2="28.6311">
		<stop  offset="0.533" style="stop-color:#FFFFFF"/>
		<stop  offset="0.6454" style="stop-color:#C6C6C6"/>
		<stop  offset="0.9026" style="stop-color:#373737"/>
		<stop  offset="1" style="stop-color:#000000"/>
	</linearGradient>
	<path opacity="0.2" fill="url(#SVGID_5_)" d="M28.539,5.727c0,0-13.033,18.541-24.432,18.541c0,0,0.24,6.359,1.299,6.441
		c0.406,0.031,21.028,0.586,21.906-0.313c0.879-0.898,1.145-1.076,1.083-1.682C28.335,28.107,28.539,5.727,28.539,5.727z"/>
	<g>
		<polygon fill-rule="evenodd" clip-rule="evenodd" fill="#FFFFFF" stroke="#000000" stroke-width="0.2451" points="6.834,6.084 
			6.614,6.084 4.672,6.084 4.451,6.084 4.451,5.865 4.451,3.923 4.451,3.702 4.672,3.702 6.614,3.702 6.834,3.702 6.834,3.923 
			6.834,5.865 6.834,6.084 		"/>
		<polygon fill-rule="evenodd" clip-rule="evenodd" fill="#FFFFFF" stroke="#000000" stroke-width="0.2451" points="6.833,9.967 
			6.614,9.967 4.672,9.967 4.451,9.967 4.451,9.747 4.451,7.806 4.451,7.585 4.672,7.585 6.614,7.585 6.833,7.585 6.833,7.806 
			6.833,9.747 6.833,9.967 		"/>
		<polygon fill-rule="evenodd" clip-rule="evenodd" fill="#FFFFFF" stroke="#000000" stroke-width="0.2451" points="6.834,13.851 
			6.614,13.851 4.672,13.851 4.451,13.851 4.451,13.629 4.451,11.688 4.451,11.467 4.672,11.467 6.614,11.467 6.834,11.467 
			6.834,11.688 6.834,13.629 6.834,13.851 		"/>
		<polygon fill-rule="evenodd" clip-rule="evenodd" fill="#FFFFFF" stroke="#000000" stroke-width="0.2451" points="6.834,17.734 
			6.614,17.734 4.672,17.734 4.451,17.734 4.451,17.514 4.451,15.572 4.451,15.351 4.672,15.351 6.614,15.351 6.834,15.351 
			6.834,15.572 6.834,17.514 6.834,17.734 		"/>
		<polygon fill-rule="evenodd" clip-rule="evenodd" fill="#FFFFFF" stroke="#000000" stroke-width="0.2451" points="6.834,21.617 
			6.614,21.617 4.672,21.617 4.451,21.617 4.451,21.396 4.451,19.455 4.451,19.232 4.672,19.232 6.614,19.232 6.834,19.232 
			6.834,19.455 6.834,21.396 6.834,21.617 		"/>
		<polygon fill-rule="evenodd" clip-rule="evenodd" fill="#FFFFFF" stroke="#000000" stroke-width="0.2451" points="6.834,25.5 
			6.614,25.5 4.672,25.5 4.451,25.5 4.451,25.279 4.451,23.338 4.451,23.117 4.672,23.117 6.614,23.117 6.834,23.117 6.834,23.338 
			6.834,25.279 6.834,25.5 		"/>
		<polygon fill-rule="evenodd" clip-rule="evenodd" fill="#FFFFFF" stroke="#000000" stroke-width="0.2451" points="6.834,29.383 
			6.614,29.383 4.672,29.383 4.451,29.383 4.451,29.162 4.451,27.221 4.451,27 4.672,27 6.614,27 6.834,27 6.834,27.221 
			6.834,29.162 6.834,29.383 		"/>
	</g>
	<g>
		<polygon fill-rule="evenodd" clip-rule="evenodd" fill="#FFFFFF" stroke="#000000" stroke-width="0.2451" points="28.014,6.084 
			27.795,6.084 25.853,6.084 25.632,6.084 25.632,5.865 25.632,3.923 25.632,3.701 25.853,3.701 27.795,3.701 28.014,3.701 
			28.014,3.923 28.014,5.865 28.014,6.084 		"/>
		<polygon fill-rule="evenodd" clip-rule="evenodd" fill="#FFFFFF" stroke="#000000" stroke-width="0.2451" points="28.014,9.968 
			27.795,9.968 25.853,9.968 25.632,9.968 25.632,9.747 25.632,7.806 25.632,7.585 25.853,7.585 27.795,7.585 28.014,7.585 
			28.014,7.806 28.014,9.747 28.014,9.968 		"/>
		<polygon fill-rule="evenodd" clip-rule="evenodd" fill="#FFFFFF" stroke="#000000" stroke-width="0.2451" points="28.014,13.851 
			27.795,13.851 25.853,13.851 25.632,13.851 25.632,13.629 25.632,11.688 25.632,11.467 25.853,11.467 27.795,11.467 
			28.014,11.467 28.014,11.688 28.014,13.629 28.014,13.851 		"/>
		<polygon fill-rule="evenodd" clip-rule="evenodd" fill="#FFFFFF" stroke="#000000" stroke-width="0.2451" points="28.014,17.734 
			27.795,17.734 25.853,17.734 25.632,17.734 25.632,17.514 25.632,15.571 25.632,15.351 25.853,15.351 27.795,15.351 
			28.014,15.351 28.014,15.571 28.014,17.514 28.014,17.734 		"/>
		<polygon fill-rule="evenodd" clip-rule="evenodd" fill="#FFFFFF" stroke="#000000" stroke-width="0.2451" points="28.016,21.617 
			27.795,21.617 25.853,21.617 25.632,21.617 25.632,21.396 25.632,19.455 25.632,19.232 25.853,19.232 27.795,19.232 
			28.016,19.232 28.016,19.455 28.016,21.396 28.016,21.617 		"/>
		<polygon fill-rule="evenodd" clip-rule="evenodd" fill="#FFFFFF" stroke="#000000" stroke-width="0.2451" points="28.014,25.5 
			27.795,25.5 25.853,25.5 25.632,25.5 25.632,25.279 25.632,23.338 25.632,23.117 25.853,23.117 27.795,23.117 28.014,23.117 
			28.014,23.338 28.014,25.279 28.014,25.5 		"/>
		<polygon fill-rule="evenodd" clip-rule="evenodd" fill="#FFFFFF" stroke="#000000" stroke-width="0.2451" points="28.013,29.383 
			27.795,29.383 25.853,29.383 25.632,29.383 25.632,29.162 25.632,27.221 25.632,27 25.853,27 27.795,27 28.013,27 28.013,27.221 
			28.013,29.162 28.013,29.383 		"/>
	</g>
	<path fill="none" stroke="#000000" stroke-width="0.2451" d="M28.641,28.334c0,1.639-1.291,2.969-2.886,2.969H6.769
		c-1.594,0-2.887-1.33-2.887-2.969V4.816c0-1.641,1.292-2.971,2.887-2.971h18.986c1.595,0,2.886,1.33,2.886,2.971V28.334z"/>
</g>
</svg>
