<?xml version="1.0" encoding="UTF-8" standalone="no"?>
<svg
   xmlns:dc="http://purl.org/dc/elements/1.1/"
   xmlns:cc="http://creativecommons.org/ns#"
   xmlns:rdf="http://www.w3.org/1999/02/22-rdf-syntax-ns#"
   xmlns:svg="http://www.w3.org/2000/svg"
   xmlns="http://www.w3.org/2000/svg"
   xmlns:sodipodi="http://sodipodi.sourceforge.net/DTD/sodipodi-0.dtd"
   xmlns:inkscape="http://www.inkscape.org/namespaces/inkscape"
   height="500"
   width="1000"
   id="svg3085"
   version="1.1"
   inkscape:version="0.48.4 r9939"
   sodipodi:docname="play-cw90.svg">
  <metadata
     id="metadata3095">
    <rdf:RDF>
      <cc:Work
         rdf:about="">
        <dc:format>image/svg+xml</dc:format>
        <dc:type
           rdf:resource="http://purl.org/dc/dcmitype/StillImage" />
      </cc:Work>
    </rdf:RDF>
  </metadata>
  <defs
     id="defs3093" />
  <sodipodi:namedview
     pagecolor="#ffffff"
     bordercolor="#666666"
     borderopacity="1"
     objecttolerance="10"
     gridtolerance="10"
     guidetolerance="10"
     inkscape:pageopacity="0"
     inkscape:pageshadow="2"
     inkscape:window-width="991"
     inkscape:window-height="645"
     id="namedview3091"
     showgrid="false"
     inkscape:zoom="0.236"
     inkscape:cx="-279.66102"
     inkscape:cy="500"
     inkscape:window-x="937"
     inkscape:window-y="555"
     inkscape:window-maximized="0"
     inkscape:current-layer="svg3085" />
  <g
     id="g3087"
     transform="matrix(0,1,-1,0,999,0)">
    <path
       d="m 486,474 c 9.333,6.667 14,15.333 14,26 0,9.333 -4.667,17.333 -14,24 0,0 -428,266 -428,266 -16,10.667 -29.667,12.667 -41,6 C 5.667,789.333 0,776 0,756 c 0,0 0,-514 0,-514 0,-20 5.667,-33.333 17,-40 11.333,-6.667 25,-4.667 41,6 0,0 428,266 428,266"
       id="path3089"
       inkscape:connector-curvature="0" />
  </g>
</svg>
